<svg width="40" height="40" viewBox="0 0 40 40" fill="none" xmlns="http://www.w3.org/2000/svg">
<path fill-rule="evenodd" clip-rule="evenodd" d="M20 10C17.2839 10 16.9439 10.0111 15.8772 10.06C14.8128 10.1089 14.0856 10.2778 13.4494 10.525C12.7822 10.7761 12.1778 11.1697 11.6783 11.6783C11.1698 12.1779 10.7762 12.7823 10.525 13.4494C10.2778 14.0856 10.1083 14.8128 10.06 15.8778C10.0117 16.9439 10 17.2833 10 20C10 22.7167 10.0111 23.0561 10.06 24.1228C10.1089 25.1872 10.2778 25.9144 10.525 26.5506C10.7761 27.2178 11.1697 27.8222 11.6783 28.3217C12.2339 28.8772 12.7922 29.2194 13.4494 29.475C14.0856 29.7222 14.8128 29.8917 15.8772 29.94C16.9439 29.9883 17.2839 30 20 30C22.7161 30 23.0561 29.9889 24.1228 29.94C25.1872 29.8911 25.9144 29.7222 26.5506 29.475C27.2178 29.2239 27.8222 28.8303 28.3217 28.3217C28.8772 27.7661 29.2194 27.2078 29.475 26.5506C29.7222 25.9144 29.8917 25.1872 29.94 24.1228C29.9883 23.0561 30 22.7161 30 20C30 17.2839 29.9889 16.9439 29.94 15.8772C29.8911 14.8128 29.7222 14.0856 29.475 13.4494C29.2239 12.7822 28.8303 12.1778 28.3217 11.6783C27.8221 11.1698 27.2177 10.7762 26.5506 10.525C25.9144 10.2778 25.1872 10.1083 24.1222 10.06C23.0561 10.0117 22.7167 10 20 10ZM20 11.8017C22.67 11.8017 22.9867 11.8122 24.0411 11.86C25.0161 11.9044 25.5456 12.0672 25.8978 12.2044C26.3644 12.3856 26.6978 12.6028 27.0478 12.9522C27.3978 13.3022 27.6144 13.6356 27.7956 14.1022C27.9328 14.4544 28.0956 14.9839 28.14 15.9589C28.1878 17.0133 28.1983 17.33 28.1983 20C28.1983 22.67 28.1878 22.9867 28.14 24.0411C28.0956 25.0161 27.9328 25.5456 27.7956 25.8978C27.6354 26.3322 27.3798 26.7251 27.0478 27.0478C26.6978 27.3978 26.3644 27.6144 25.8978 27.7956C25.5456 27.9328 25.0161 28.0956 24.0411 28.14C22.9867 28.1878 22.6706 28.1983 20 28.1983C17.3294 28.1983 17.0133 28.1878 15.9589 28.14C14.9839 28.0956 14.4544 27.9328 14.1022 27.7956C13.6678 27.6354 13.2749 27.3798 12.9522 27.0478C12.6202 26.7251 12.3646 26.3322 12.2044 25.8978C12.0672 25.5456 11.9044 25.0161 11.86 24.0411C11.8122 22.9867 11.8017 22.67 11.8017 20C11.8017 17.33 11.8122 17.0133 11.86 15.9589C11.9044 14.9839 12.0672 14.4544 12.2044 14.1022C12.3856 13.6356 12.6028 13.3022 12.9522 12.9522C13.3022 12.6022 13.6356 12.3856 14.1022 12.2044C14.4544 12.0672 14.9839 11.9044 15.9589 11.86C17.0133 11.8122 17.33 11.8017 20 11.8017Z" fill="#1B1B1B"/>
<path fill-rule="evenodd" clip-rule="evenodd" d="M20.0001 23.3368C19.5619 23.3368 19.128 23.2505 18.7232 23.0828C18.3184 22.9151 17.9506 22.6693 17.6407 22.3595C17.3309 22.0496 17.0851 21.6818 16.9174 21.277C16.7497 20.8722 16.6634 20.4383 16.6634 20.0001C16.6634 19.5619 16.7497 19.128 16.9174 18.7232C17.0851 18.3184 17.3309 17.9505 17.6407 17.6407C17.9506 17.3309 18.3184 17.0851 18.7232 16.9174C19.128 16.7497 19.5619 16.6634 20.0001 16.6634C20.885 16.6634 21.7337 17.015 22.3595 17.6407C22.9852 18.2665 23.3368 19.1152 23.3368 20.0001C23.3368 20.885 22.9852 21.7337 22.3595 22.3595C21.7337 22.9852 20.885 23.3368 20.0001 23.3368ZM20.0001 14.8601C18.6369 14.8601 17.3295 15.4016 16.3656 16.3656C15.4016 17.3295 14.8601 18.6369 14.8601 20.0001C14.8601 21.3633 15.4016 22.6707 16.3656 23.6346C17.3295 24.5986 18.6369 25.1401 20.0001 25.1401C21.3633 25.1401 22.6707 24.5986 23.6346 23.6346C24.5986 22.6707 25.1401 21.3633 25.1401 20.0001C25.1401 18.6369 24.5986 17.3295 23.6346 16.3656C22.6707 15.4016 21.3633 14.8601 20.0001 14.8601ZM26.6357 14.7668C26.6357 15.089 26.5077 15.398 26.2798 15.6259C26.0519 15.8537 25.7429 15.9818 25.4207 15.9818C25.0984 15.9818 24.7894 15.8537 24.5615 15.6259C24.3337 15.398 24.2057 15.089 24.2057 14.7668C24.2057 14.4445 24.3337 14.1355 24.5615 13.9076C24.7894 13.6798 25.0984 13.5518 25.4207 13.5518C25.7429 13.5518 26.0519 13.6798 26.2798 13.9076C26.5077 14.1355 26.6357 14.4445 26.6357 14.7668Z" fill="#1B1B1B"/>
</svg>
